<svg id="Layer_1" data-name="Layer 1" xmlns="http://www.w3.org/2000/svg" viewBox="0 0 433.81 173.94"><defs><style>.cls-1{font-size:82.88px;font-family:Roboto-Bold, Roboto;font-weight:700;letter-spacing:-0.02em;}.cls-1,.cls-2{fill:#14499e;}</style></defs><title>mathbook_blue_white</title><text class="cls-1" transform="translate(68.51 151.48)">Mathbook</text><text x="-34.09" y="45.09"></text><line class="cls-2" x1="54.99" y1="111.64" x2="54.99" y2="111.64"/><path class="cls-2" d="M89.08,66.54" transform="translate(-34.09 45.09)"/><path class="cls-2" d="M41.46,93.57H85.2v-4H38.27a4.18,4.18,0,0,0-4.18,4.18v8.42a4.18,4.18,0,0,0,4.18,4.18H85.2v-4H41.46a4.18,4.18,0,0,1-4.18-4.18v-.46A4.18,4.18,0,0,1,41.46,93.57Z" transform="translate(-34.09 45.09)"/><path class="cls-2" d="M85.2,54.35V48H78.58c0,.12,0,.22,0,.34v6l5.75.07A7.24,7.24,0,0,0,85.2,54.35Z" transform="translate(-34.09 45.09)"/><path class="cls-2" d="M63,61.56a4.59,4.59,0,0,0-1.38,3.86,6.53,6.53,0,0,0,5.79,5.79,4.44,4.44,0,0,0,3.82-1.27,5.13,5.13,0,0,0,1.46-3.79v-6H66.9A5.22,5.22,0,0,0,63,61.56Z" transform="translate(-34.09 45.09)"/><path class="cls-2" d="M80,60.17H78.7a47.63,47.63,0,0,1-.58,8.37,9.89,9.89,0,0,1-2.77,5.31,12.21,12.21,0,0,1-8.12,3.82q-4.55.26-8.41-3.6a10.92,10.92,0,0,1-3.6-8.33A11.88,11.88,0,0,1,59,57.63a10.33,10.33,0,0,1,4.37-2.55,17,17,0,0,1,4.48-.84q1.86,0,4.91.11V50.2c0-.44,0-1.09.07-2,0-.07,0-.13,0-.2H42.27a8.18,8.18,0,0,0-8.18,8.18V92.78H85.2V60A42.67,42.67,0,0,1,80,60.17Z" transform="translate(-34.09 45.09)"/></svg>